<svg width="280" height="280" viewBox="0 0 280 280" xmlns="http://www.w3.org/2000/svg">
  <rect width="280" height="280" rx="24" fill="#111827" />
  <rect x="28" y="28" width="224" height="224" rx="16" fill="#f8fafc" />
  <path d="M56 56h40v40H56zm56 0h40v40h-40zm56 0h40v40h-40zm56 0h40v40h-40zm-168 56h40v40H56zm56 0h40v40h-40zm56 0h40v40h-40zm56 0h40v40h-40zm-168 56h40v40H56zm56 0h40v40h-40zm56 0h40v40h-40zm56 0h40v40h-40zm-168 56h40v40H56zm56 0h40v40h-40zm56 0h40v40h-40zm56 0h40v40h-40z" fill="#111827" />
  <text x="50%" y="260" text-anchor="middle" fill="#111827" font-family="Inter, sans-serif" font-size="18">GANTI DENGAN QRIS ASLI</text>
</svg>